<?xml version="1.0" encoding="UTF-8"?>
<svg version="1.1" xmlns="http://www.w3.org/2000/svg" width="687" height="927">
<path d="M0 0 C2.68603394 1.54508385 5.14340536 3.33566853 7.625 5.1875 C9.13747495 6.28590831 10.65051966 7.3835324 12.1640625 8.48046875 C12.95329102 9.05716309 13.74251953 9.63385742 14.55566406 10.22802734 C18.66518016 13.20713919 22.83497227 16.09928385 27 19 C33.17771905 23.31779236 39.34563636 27.64898775 45.5 32 C54.97727045 38.69916114 64.48850191 45.34956634 74 52 C84.20529182 59.13553381 94.40510455 66.27810781 104.57373047 73.46582031 C112.48990539 79.05826844 120.43384333 84.61094888 128.37695312 90.16503906 C131.12197732 92.08532963 133.86581914 94.00729974 136.609375 95.9296875 C137.52227295 96.56922363 138.4351709 97.20875977 139.37573242 97.86767578 C141.13126644 99.09758649 142.88664432 100.3277201 144.6418457 101.55810547 C145.43163818 102.11127441 146.22143066 102.66444336 147.03515625 103.234375 C147.7300415 103.72131836 148.42492676 104.20826172 149.14086914 104.70996094 C150.74793206 105.82509166 152.37246033 106.91497356 154 108 C154.33798217 110.78735246 154.47693305 113.36104022 154.49408245 116.15610504 C154.51105097 117.01365375 154.5280195 117.87120246 154.54550222 118.7547375 C154.59931188 121.66020668 154.63174668 124.56553565 154.66447449 127.47131348 C154.69879524 129.56327505 154.7344176 131.6552156 154.77123719 133.74713469 C154.86906088 139.52178876 154.9482489 145.29657475 155.02454078 151.07154799 C155.10992388 157.29203838 155.21235439 163.51225015 155.31272888 169.73251343 C155.48454308 180.52768973 155.64547292 191.32297153 155.79875755 202.11842346 C155.95998099 213.47101702 156.1270789 224.8234983 156.30208778 236.17588806 C156.31297234 236.88223759 156.32385689 237.58858712 156.33507128 238.31634117 C156.39038865 241.90445476 156.44580369 245.49256683 156.50125173 249.0806784 C156.89440431 274.5363575 157.27329155 299.99223141 157.64428711 325.44824219 C158.00325465 350.0779332 158.37010974 374.70748794 158.74682617 399.33691406 C158.76416298 400.4706036 158.76416298 400.4706036 158.78185002 401.62719596 C158.87486873 407.70969514 158.96791259 413.79219394 159.06100403 419.87469201 C159.46544368 446.30211165 159.86315631 472.72963288 160.25973094 499.15717156 C160.33407584 504.11003879 160.40867019 509.06290223 160.48336196 514.01576424 C160.7082073 528.93154206 160.93086501 543.84734734 161.14789792 558.76324123 C161.23756875 564.92529245 161.32809033 571.08732708 161.42137146 577.2493248 C161.85824788 606.16848257 162.1039767 635.07743827 162 664 C160.97233489 664.49890118 159.94466978 664.99780235 158.8858633 665.51182175 C157.5206241 666.17460874 156.15538496 666.83739587 154.79014587 667.50018311 C154.11482236 667.82803236 153.43949885 668.15588161 152.74371099 668.4936657 C137.61508438 675.83822568 122.49187192 683.19377579 107.375 690.5625 C94.75673016 696.71317799 82.13190679 702.8500435 69.49847412 708.96951294 C58.15765937 714.46331831 46.8271456 719.97807185 35.5 725.5 C22.84030097 731.67154144 10.1742204 737.8295931 -2.50097656 743.96923828 C-13.8419734 749.46313724 -25.17267042 754.97798216 -36.5 760.5 C-49.15969903 766.67154144 -61.8257796 772.8295931 -74.50097656 778.96923828 C-85.8419734 784.46313724 -97.17267042 789.97798216 -108.5 795.5 C-121.15969903 801.67154144 -133.8257796 807.8295931 -146.50097656 813.96923828 C-157.8419734 819.46313724 -169.17267042 824.97798216 -180.5 830.5 C-193.15969903 836.67154144 -205.8257796 842.8295931 -218.50097656 848.96923828 C-229.8419734 854.46313724 -241.17267042 859.97798216 -252.5 865.5 C-265.15969903 871.67154144 -277.8257796 877.8295931 -290.50097656 883.96923828 C-300.17878768 888.65744313 -309.85015816 893.35868609 -319.51611328 898.07128906 C-322.81544194 899.67973701 -326.11593842 901.28574888 -329.41748047 902.88964844 C-336.71392336 906.43610201 -344.00425576 909.99234681 -351.26312256 913.61523438 C-354.32274302 915.14090732 -357.38726059 916.65657906 -360.45239258 918.17114258 C-361.88801461 918.88403321 -363.32118348 919.60188794 -364.75170898 920.32495117 C-366.71653493 921.31773231 -368.68902444 922.29335891 -370.6640625 923.265625 C-371.77217285 923.82024414 -372.8802832 924.37486328 -374.02197266 924.94628906 C-377.30486716 926.10787069 -378.75064665 926.14892922 -382 925 C-384.18620584 923.36965777 -386.16985524 921.75265711 -388.1875 919.9375 C-389.34669232 918.92467695 -390.50685664 917.91296535 -391.66796875 916.90234375 C-392.23563965 916.40460449 -392.80331055 915.90686523 -393.38818359 915.39404297 C-395.54215872 913.53109265 -397.7625484 911.76139806 -400 910 C-404.45093163 906.4724383 -408.78319977 902.81977957 -413.10888672 899.14111328 C-418.34874609 894.69008308 -423.66508723 890.33656652 -429 886 C-435.44373941 880.76210656 -441.83016662 875.4661975 -448.15917969 870.09082031 C-453.38447188 865.6594004 -458.68355885 861.32155158 -464 857 C-470.44373941 851.76210656 -476.83016662 846.4661975 -483.15917969 841.09082031 C-488.38447188 836.6594004 -493.68355885 832.32155158 -499 828 C-505.08672082 823.05231466 -511.13645213 818.06596553 -517.125 813 C-517.69395996 812.51869629 -518.26291992 812.03739258 -518.84912109 811.54150391 C-522.86534463 808.13465537 -522.86534463 808.13465537 -524 807 C-524.10136643 805.65348408 -524.13396418 804.30171379 -524.1386652 802.95139599 C-524.1468766 801.63266962 -524.1468766 801.63266962 -524.15525389 800.28730232 C-524.15623217 799.30885531 -524.15721045 798.33040831 -524.15821838 797.3223114 C-524.16315795 796.2892613 -524.16809752 795.25621121 -524.17318678 794.19185656 C-524.18868211 790.68739499 -524.19696653 787.18295217 -524.20532227 783.6784668 C-524.21488356 781.16309006 -524.22486821 778.6477149 -524.2352438 776.13234138 C-524.25963754 769.92988756 -524.27928862 763.72743321 -524.29693287 757.52495699 C-524.31818447 750.13978171 -524.34524045 742.75463061 -524.37231781 735.36947482 C-524.44605735 715.14218034 -524.50541333 694.91484729 -524.5625 674.6875 C-524.56483523 673.86252789 -524.56717045 673.03755578 -524.56957644 672.18758452 C-524.6581368 640.89640243 -524.74360916 609.60520969 -524.81893355 578.31399274 C-524.8396789 569.69972426 -524.86098927 561.08545722 -524.8828125 552.47119141 C-524.88496318 551.62218075 -524.88711386 550.77317009 -524.88932972 549.89843184 C-524.95954418 522.36245478 -525.06972326 494.82683021 -525.20580832 467.29110568 C-525.22443497 463.51931206 -525.24295738 459.74751795 -525.2613678 455.97572327 C-525.26497679 455.23637103 -525.26858577 454.4970188 -525.27230413 453.73526195 C-525.32518392 442.83223584 -525.36942141 431.9292023 -525.40550232 421.02610779 C-525.4078219 420.3253679 -525.41014147 419.624628 -525.41253134 418.90265357 C-525.43533198 411.95648025 -525.45673235 405.01030368 -525.47629948 398.0641205 C-525.48586516 394.67739989 -525.49574768 391.29068029 -525.50582886 387.90396118 C-525.50779976 387.23921119 -525.50977066 386.5744612 -525.51180128 385.88956726 C-525.54623403 374.55482869 -525.61275379 363.22048137 -525.6867131 351.885948 C-525.74970608 341.89209479 -525.78376418 331.89841402 -525.79428113 321.90436858 C-525.8011824 316.18123616 -525.82116188 310.45893262 -525.87625122 304.73604393 C-525.92608751 299.53676475 -525.93952819 294.33875187 -525.92311943 289.13927138 C-525.92374654 287.26051455 -525.93804426 285.38170433 -525.96711171 283.50317228 C-526.17367751 269.46414422 -526.17367751 269.46414422 -523.2557478 265.82407284 C-521.1723459 264.48659335 -519.36102272 263.70933389 -517 263 C-515.60914185 262.25230347 -515.60914185 262.25230347 -514.19018555 261.48950195 C-512.92621948 260.87014771 -512.92621948 260.87014771 -511.63671875 260.23828125 C-510.67854248 259.76503418 -509.72036621 259.29178711 -508.7331543 258.80419922 C-507.72808838 258.31193848 -506.72302246 257.81967773 -505.6875 257.3125 C-498.47777609 253.74436406 -491.29027897 250.15189395 -484.1875 246.375 C-475.16687329 241.58469486 -466.08601456 236.91462976 -457 232.25 C-446.44819519 226.83182247 -435.90148151 221.40476705 -425.375 215.9375 C-415.4271269 210.77121787 -405.46666062 205.62990306 -395.5 200.5 C-383.20490445 194.17126209 -370.92246616 187.81874391 -358.6484375 181.44921875 C-351.72643623 177.8571894 -344.80155187 174.27074463 -337.875 170.6875 C-336.98261627 170.22583939 -336.98261627 170.22583939 -336.07220459 169.75485229 C-325.47721431 164.274531 -314.87287345 158.81243687 -304.26739502 153.35244751 C-292.71694615 147.4054143 -281.17972571 141.43333605 -269.6484375 135.44921875 C-262.72643623 131.8571894 -255.80155187 128.27074463 -248.875 124.6875 C-247.98261627 124.22583939 -247.98261627 124.22583939 -247.07220459 123.75485229 C-236.47721431 118.274531 -225.87287345 112.81243687 -215.26739502 107.35244751 C-203.71694615 101.4054143 -192.17972571 95.43333605 -180.6484375 89.44921875 C-173.72643623 85.8571894 -166.80155187 82.27074463 -159.875 78.6875 C-158.98261627 78.22583939 -158.98261627 78.22583939 -158.07220459 77.75485229 C-147.47588135 72.27384151 -136.87030168 66.81087256 -126.2633667 61.35043335 C-115.91308535 56.02168405 -105.5736762 50.67252378 -95.24169922 45.30834961 C-86.33702673 40.6875786 -77.41984482 36.09139492 -68.5 31.5 C-59.34289945 26.78582429 -50.18686612 22.06966548 -41.04174805 17.33227539 C-38.79677864 16.16944701 -36.55087462 15.00842091 -34.30395508 13.84936523 C-29.27438882 11.24881396 -24.27091034 8.61619658 -19.31640625 5.875 C-18.4435498 5.39732178 -17.57069336 4.91964355 -16.67138672 4.42749023 C-15.07537266 3.5504198 -13.48641062 2.66032295 -11.90673828 1.75415039 C-7.56713334 -0.62015183 -4.8935193 -1.77946156 0 0 Z M-3 24 C-3.0327014 54.85317378 -2.96249586 85.70411489 -2.77568913 116.55671585 C-2.74892027 121.01782533 -2.72323712 125.47894084 -2.69753577 129.94005658 C-2.60603881 145.81812885 -2.5104503 161.69617554 -2.4140625 177.57421875 C-2.39867315 180.11376706 -2.3832845 182.65331538 -2.36789656 185.1928637 C-2.22807626 208.24928051 -2.08706952 231.30569001 -1.94288429 254.36207995 C-1.9045875 260.48609665 -1.86634628 266.61011369 -1.828125 272.73413086 C-1.82390199 273.41051585 -1.81967898 274.08690083 -1.815328 274.78378233 C-1.67769588 296.83584923 -1.5472762 318.88795133 -1.4207504 340.94008453 C-1.28636574 364.35627464 -1.14478976 387.7724089 -0.99527586 411.18850833 C-0.91418926 423.91830371 -0.83641787 436.64810082 -0.76704788 449.37796593 C-0.70818173 460.17855409 -0.64273046 470.9790762 -0.56849338 481.77957013 C-0.53084524 487.28720941 -0.49643028 492.79482022 -0.47053719 498.30252838 C-0.4467901 503.33842513 -0.41404451 508.37417854 -0.37400119 513.40997133 C-0.36109886 515.23497193 -0.35155295 517.05999984 -0.34563084 518.88503643 C-0.33712345 521.35805934 -0.31658265 523.83069683 -0.29294777 526.30361462 C-0.29338876 527.01796646 -0.29382975 527.73231831 -0.29428411 528.46831718 C-0.24191156 532.40556891 0.16255952 535.49476264 2 539 C4.40478752 541.29509034 4.40478752 541.29509034 7.4375 543.4375 C8.00388184 543.85870117 8.57026367 544.27990234 9.15380859 544.71386719 C10.4120498 545.64691483 11.67432085 546.57454535 12.93994141 547.49755859 C15.1069701 549.07801541 17.26315978 550.67245953 19.41796875 552.26953125 C23.44726388 555.25179415 27.48645582 558.22035009 31.52832031 561.18554688 C35.52303737 564.11805746 39.51126088 567.05936661 43.5 570 C45.08330059 571.16671111 46.66663396 572.33337772 48.25 573.5 C64.08333333 585.16666667 79.91666667 596.83333333 95.75 608.5 C96.53431396 609.07790283 97.31862793 609.65580566 98.12670898 610.2512207 C99.70439483 611.41375169 101.28203183 612.57634897 102.85961914 613.73901367 C106.90395379 616.71951156 110.94922297 619.69872758 114.99609375 622.67578125 C116.64326478 623.88797245 118.29040072 625.10021132 119.9375 626.3125 C120.72624512 626.89273926 121.51499023 627.47297852 122.32763672 628.07080078 C127.9016712 632.1764384 133.43831716 636.32835794 138.9453125 640.5234375 C140.71364136 642.09726207 140.71364136 642.09726207 142 642 C141.95835844 639.18053684 141.91671176 636.36107375 141.87506104 633.54161072 C141.86155741 632.62745396 141.84805378 631.7132972 141.83414096 630.77143872 C141.75523581 625.43092177 141.67624261 620.09040613 141.59713078 614.74989223 C141.56209162 612.38415467 141.52705464 610.01841707 141.49201965 607.65267944 C141.47385195 606.4259136 141.45568424 605.19914775 141.436966 603.93520719 C141.33103086 596.77654809 141.22559908 589.61788184 141.12071576 582.45920725 C141.00917434 574.84657833 140.89720903 567.2339557 140.78491211 559.62133789 C140.77438611 558.90752146 140.76386011 558.19370503 140.75301515 557.45825779 C140.44386983 536.50655254 140.11883369 515.55514943 139.78051445 494.60389578 C139.55623523 480.70695414 139.33671818 466.80993705 139.11900601 452.91289112 C139.08192021 450.54760532 139.04471029 448.1823215 139.00748944 445.81703782 C138.32639798 402.46508832 137.84669114 359.11696506 137.60649966 315.76034137 C137.54404264 304.5310878 137.46403799 293.3020894 137.3678894 282.07307434 C137.36169443 281.34580718 137.35549946 280.61854001 137.34911676 279.86923445 C137.28721442 272.62101229 137.22324613 265.37281152 137.15637348 258.12463352 C137.0141301 242.61665702 136.91924431 227.1103142 136.91424438 211.60165486 C136.9094713 200.31266953 136.83640509 189.02569163 136.69832307 177.73740983 C136.62606413 171.63720933 136.58504968 165.54095679 136.62787437 159.44038773 C136.66669641 153.85983154 136.61835757 148.28697981 136.50158834 142.70757306 C136.47484536 140.69573753 136.47986303 138.68316501 136.52054262 136.67156303 C136.86240727 126.06858514 136.86240727 126.06858514 132.16731572 116.97235751 C127.64502682 113.13544812 122.68207891 110.23526683 117.48226178 107.42029655 C113.36021103 105.06174818 109.61054691 102.21560445 105.8125 99.375 C99.59541747 94.84286477 93.31272122 90.4250477 86.95922852 86.08666992 C81.47967954 82.34191708 76.05317841 78.52609079 70.63647461 74.69116211 C65.10396882 70.77541581 59.55522199 66.88344272 54 63 C47.82311021 58.68101205 41.65444731 54.35090894 35.5 50 C29.17461271 45.53032095 22.84138336 41.07195972 16.5 36.625 C15.68724609 36.05394531 14.87449219 35.48289062 14.03710938 34.89453125 C5.96881307 28.02331611 5.96881307 28.02331611 -3 24 Z M-26.3046875 32.5859375 C-27.05726837 32.96174957 -27.80984924 33.33756165 -28.5852356 33.72476196 C-30.19484915 34.52922701 -31.8039533 35.33471193 -33.41259766 36.14111328 C-35.80095481 37.33789665 -38.19133699 38.5305499 -40.58203125 39.72265625 C-48.39591042 43.62807401 -56.16825953 47.5970835 -63.8828125 51.6953125 C-71.82123826 55.90538951 -79.83421305 59.95810451 -87.875 63.96875 C-88.4866312 64.2738512 -89.09826241 64.57895241 -89.72842789 64.8932991 C-94.78927832 67.41671916 -99.85273727 69.93488938 -104.91625977 72.45294189 C-109.32035973 74.64333413 -113.72348532 76.83566691 -118.125 79.03125 C-119.04499786 79.49010841 -119.04499786 79.49010841 -119.98358154 79.95823669 C-127.19836994 83.55983391 -134.38142997 87.21126174 -141.5 91 C-149.22981777 95.11406451 -157.03951661 99.06072193 -164.875 102.96875 C-165.48752625 103.27429306 -166.10005249 103.57983612 -166.73114014 103.89463806 C-171.79108667 106.41761147 -176.85364003 108.93533831 -181.91625977 111.45294189 C-186.32035973 113.64333413 -190.72348441 115.83566875 -195.125 118.03125 C-195.7373349 118.3366571 -196.3496698 118.64206421 -196.9805603 118.95672607 C-204.25920325 122.59018791 -211.50052181 126.28163389 -218.6875 130.09375 C-230.36380787 136.24536186 -242.19564508 142.09782254 -254 148 C-254 172.42 -254 196.84 -254 222 C-249.79426376 220.59808792 -246.29126427 219.26941124 -242.39453125 217.3125 C-241.32654297 216.77753906 -240.25855469 216.24257812 -239.15820312 215.69140625 C-238.05412109 215.13324219 -236.95003906 214.57507813 -235.8125 214 C-234.75869141 213.47277344 -233.70488281 212.94554687 -232.61914062 212.40234375 C-226.95717973 209.55622437 -221.33155961 206.65381772 -215.73503113 203.6817627 C-206.92618672 199.00717076 -198.0487725 194.48243876 -189.125 190.03125 C-188.51385031 189.72638672 -187.90270061 189.42152344 -187.27303123 189.10742188 C-182.21169452 186.58376133 -177.14774848 184.06535218 -172.08374023 181.54705811 C-167.67964028 179.35666587 -163.27650953 177.16434338 -158.875 174.96875 C-157.95989371 174.5123218 -157.95989371 174.5123218 -157.02630043 174.04667282 C-148.84175925 169.96085404 -140.71059625 165.79001007 -132.63273621 161.49758911 C-124.10218569 156.97140019 -115.4588329 152.67459605 -106.8125 148.375 C-105.16461754 147.55357797 -103.51683079 146.73196393 -101.86914062 145.91015625 C-97.91401962 143.93755701 -93.95699836 141.96884796 -90 140 C-90.33 146.6 -90.66 153.2 -91 160 C-100.77160046 164.89721032 -110.54411243 169.79259025 -120.31813145 174.68497181 C-124.85919756 176.95808642 -129.39989833 179.23192389 -133.93969727 181.50756836 C-168.73164674 198.94643573 -168.73164674 198.94643573 -183.61943054 205.99162292 C-195.89291592 211.81637941 -208.02273992 217.93612511 -220.16943359 224.01953125 C-223.73094473 225.8031957 -227.29430654 227.58312943 -230.85816002 229.36210823 C-233.62797666 230.74521884 -236.39684704 232.13021482 -239.16542435 233.51580429 C-240.48169234 234.17427126 -241.79825646 234.8321466 -243.11512375 235.48941422 C-244.93106652 236.39612438 -246.74560131 237.30565284 -248.56005859 238.21533203 C-249.58988861 238.73064484 -250.61971863 239.24595764 -251.68075562 239.77688599 C-253.89947997 240.80094448 -253.89947997 240.80094448 -255 242 C-255.09365006 243.7492872 -255.11744438 245.50236254 -255.11352539 247.25415039 C-255.11344986 248.37523697 -255.11337433 249.49632355 -255.11329651 250.65138245 C-255.10813522 251.8711528 -255.10297394 253.09092316 -255.09765625 254.34765625 C-255.0962413 255.58921982 -255.09482635 256.83078339 -255.09336853 258.10997009 C-255.08870591 261.41605491 -255.07971497 264.72207146 -255.06866455 268.02813721 C-255.05844827 271.3996115 -255.05387045 274.77109283 -255.04882812 278.14257812 C-255.03777395 284.76173775 -255.02101736 291.38086493 -255 298 C-244.29281263 293.23942205 -233.62244947 288.46299798 -223.1875 283.125 C-215.64230251 279.31161477 -208.07463932 275.56331119 -200.4375 271.9375 C-189.88285161 266.9229413 -179.3766706 261.81175844 -168.875 256.6875 C-153.76185896 249.3148884 -138.6339601 241.97464284 -123.48339844 234.67919922 C-120.40672799 233.19606638 -117.33150999 231.70999685 -114.25708008 230.222229 C-111.73425769 229.00160339 -109.21074751 227.78240409 -106.68713379 226.56341553 C-104.91943533 225.70897832 -103.15257761 224.85280244 -101.38574219 223.99658203 C-100.32774414 223.48595215 -99.26974609 222.97532227 -98.1796875 222.44921875 C-97.24882324 221.99893311 -96.31795898 221.54864746 -95.35888672 221.0847168 C-93 220 -93 220 -90 219 C-88.79373779 224.5732368 -88.20850373 229.81722303 -91 235 C-97.91003891 241.28839442 -107.44091105 244.63320344 -115.875 248.375 C-118.21759673 249.46415031 -120.55748054 250.55915587 -122.89453125 251.66015625 C-126.2358696 253.23228523 -129.57804886 254.7963174 -132.9447937 256.31332397 C-140.27928169 259.62625503 -147.38337213 263.26259873 -154.4885273 267.03774261 C-162.83117423 271.46324194 -171.26739478 275.69129117 -179.72176361 279.8984642 C-182.50702182 281.28456122 -185.2909169 282.67336489 -188.07452393 284.06277466 C-193.96520383 287.00248305 -199.85748314 289.93897582 -205.75 292.875 C-212.63035925 296.30332271 -219.51003226 299.73300895 -226.38803864 303.16604996 C-229.11860893 304.52811724 -231.8503793 305.88775553 -234.58221436 307.24728394 C-236.25897029 308.08384547 -237.93567009 308.92051953 -239.61230469 309.75732422 C-240.36145142 310.12931442 -241.11059814 310.50130463 -241.88244629 310.88456726 C-242.58822815 311.23742294 -243.29401001 311.59027863 -244.0211792 311.9538269 C-244.62424267 312.25424833 -245.22730614 312.55466976 -245.84864426 312.86419487 C-248.94200081 314.49732796 -251.96288866 316.2645078 -255 318 C-255 342.42 -255 366.84 -255 392 C-238.93818555 384.40161201 -238.93818555 384.40161201 -223 376.5625 C-222.00484375 376.06685547 -221.0096875 375.57121094 -219.984375 375.06054688 C-213.63214662 371.88044259 -207.33979856 368.60217383 -201.0625 365.27734375 C-189.53960314 359.18213874 -177.86418906 353.39976595 -166.18847656 347.60449219 C-156.5957938 342.83987043 -147.02383832 338.0526223 -137.5625 333.03125 C-125.8347654 326.8079545 -113.93359714 320.93582011 -102.04296875 315.03173828 C-91.36837491 309.72802038 -80.73500885 304.37152521 -70.20681763 298.78236389 C-60.18962352 293.48312827 -50.02454477 288.4769667 -39.875 283.4375 C-35.93375327 281.48015108 -31.99384051 279.52015214 -28.0546875 277.55859375 C-27.15700653 277.11390244 -26.25932556 276.66921112 -25.33444214 276.21104431 C-24.10517502 275.59888817 -24.10517502 275.59888817 -22.85107422 274.97436523 C-22.12894745 274.61592026 -21.40682068 274.25747528 -20.66281128 273.88816833 C-19.01426366 273.11111816 -19.01426366 273.11111816 -18 272 C-17.90194058 268.87760807 -17.87009524 265.77731859 -17.87974548 262.65452576 C-17.87889106 261.66136811 -17.87803663 260.66821046 -17.87715632 259.64495713 C-17.87549851 256.28989819 -17.88102779 252.93488837 -17.88647461 249.57983398 C-17.88675644 247.18562827 -17.88659882 244.79142246 -17.8860321 242.3972168 C-17.88580379 237.22869319 -17.88865511 232.06018086 -17.89426994 226.89166069 C-17.90238288 219.41876712 -17.90499995 211.94587967 -17.90625793 204.47298218 C-17.90844878 192.34990459 -17.91510975 180.22683371 -17.92456055 168.10375977 C-17.93373382 156.32446323 -17.94081507 144.54516852 -17.94506836 132.76586914 C-17.94533108 132.04029194 -17.94559381 131.31471474 -17.94586449 130.56715035 C-17.94716949 126.92729168 -17.94843321 123.287433 -17.94967639 119.64757431 C-17.96005002 89.4317114 -17.97774334 59.21585663 -18 29 C-20.68332536 29 -23.88507834 31.3727443 -26.3046875 32.5859375 Z M-275.1171875 158.4921875 C-276.1882373 159.02674561 -277.25928711 159.56130371 -278.36279297 160.11206055 C-279.52182129 160.69383057 -280.68084961 161.27560059 -281.875 161.875 C-282.76665863 162.32149399 -282.76665863 162.32149399 -283.67633057 162.77700806 C-290.78391566 166.3370104 -297.86154994 169.94469003 -304.875 173.6875 C-314.15912603 178.63973484 -323.58139948 183.31070132 -333 188 C-346.81941094 194.86451845 -346.81941094 194.86451845 -360.5 202 C-370.36663865 207.28233044 -380.40673361 212.21942507 -390.42431641 217.20703125 C-403.02518178 223.48056706 -403.02518178 223.48056706 -415.5 230 C-425.36332965 235.28055889 -435.39998642 240.21613279 -445.41424561 245.20199585 C-454.73338085 249.84352016 -464.02488065 254.5159431 -473.20654297 259.42553711 C-481.26549072 263.71660447 -489.45437034 267.7518597 -497.63720703 271.80004883 C-498.70825684 272.33138428 -499.77930664 272.86271973 -500.8828125 273.41015625 C-501.84590332 273.88590088 -502.80899414 274.36164551 -503.80126953 274.85180664 C-505.91660296 275.81677779 -505.91660296 275.81677779 -507 277 C-507.09664967 278.94894959 -507.12187121 280.90145455 -507.12025452 282.85279846 C-507.12162918 284.12471039 -507.12300385 285.39662231 -507.12442017 286.70707703 C-507.12088055 288.12966942 -507.11724573 289.55226158 -507.11352539 290.97485352 C-507.11324353 292.46266681 -507.11340124 293.95048024 -507.1139679 295.43829346 C-507.1142559 299.48977 -507.10835867 303.5412172 -507.10139394 307.59268689 C-507.09516092 311.82211997 -507.09455664 316.05155364 -507.09336853 320.2809906 C-507.09025506 328.29559722 -507.08204146 336.31019027 -507.07201904 344.32479089 C-507.06085839 353.44676684 -507.05534758 362.56874342 -507.05032361 371.69072449 C-507.03985886 390.4604907 -507.02225912 409.23024426 -507 428 C-492.64405752 421.30531213 -492.64405752 421.30531213 -478.5546875 414.07421875 C-476.97022299 413.23002462 -475.38524471 412.38679423 -473.79980469 411.54443359 C-472.61541809 410.91429352 -472.61541809 410.91429352 -471.40710449 410.27142334 C-467.35477351 408.13099769 -463.27590473 406.04294308 -459.1953125 403.95703125 C-458.37918488 403.53968216 -457.56305725 403.12233307 -456.72219849 402.69233704 C-455.05023084 401.83790058 -453.37807912 400.98382424 -451.70574951 400.13009644 C-447.21392247 397.83680324 -442.72412366 395.53954641 -438.234375 393.2421875 C-436.90247635 392.56073921 -436.90247635 392.56073921 -435.54367065 391.86552429 C-427.01569891 387.50016492 -418.50689074 383.09853541 -410.00195312 378.68847656 C-403.03619488 375.07959164 -396.06105862 371.48961266 -389.078125 367.9140625 C-388.21430206 367.47165726 -387.35047913 367.02925201 -386.46047974 366.57344055 C-382.21075008 364.39731168 -377.96021582 362.2227751 -373.70849609 360.05053711 C-365.64576342 355.92623633 -357.60533009 351.77169651 -349.64859009 347.44544983 C-347.11375296 346.07629957 -344.74137988 344.91379329 -342 344 C-341.02848253 350.15750511 -340.45843788 356.14628225 -343 362 C-347.74455444 367.07975189 -354.9532545 369.50022832 -361.18798828 372.25634766 C-365.54949366 374.21446579 -369.78524051 376.40298651 -374.02734375 378.60546875 C-375.20604286 379.21744362 -375.20604286 379.21744362 -376.40855408 379.84178162 C-378.02056509 380.67971507 -379.63231319 381.5181545 -381.24380493 382.35708618 C-385.28077859 384.45167431 -389.33230403 386.5176821 -393.3828125 388.5859375 C-404.69359631 394.3704029 -415.93794491 400.26927211 -427.12109375 406.296875 C-429.4138518 407.53164132 -431.70682864 408.76600143 -434 410 C-434.58099457 410.31276886 -435.16198914 410.62553772 -435.7605896 410.94778442 C-446.0668095 416.48989005 -456.45725793 421.85853325 -466.875 427.1875 C-477.01630648 432.37589947 -487.12620394 437.60273058 -497.125 443.0625 C-498.0310498 443.55709717 -498.93709961 444.05169434 -499.87060547 444.5612793 C-503.66250922 446.46195047 -503.66250922 446.46195047 -507 449 C-507.09425595 451.14743549 -507.11742648 453.29801026 -507.11352539 455.44750977 C-507.11367142 456.12065216 -507.11381744 456.79379456 -507.1139679 457.48733521 C-507.11326878 459.72205784 -507.10547652 461.9566981 -507.09765625 464.19140625 C-507.09579206 465.73697362 -507.09436816 467.28254157 -507.09336853 468.82810974 C-507.0895434 472.90357077 -507.07971317 476.97899637 -507.06866455 481.05444336 C-507.05845032 485.21011882 -507.05387089 489.36579999 -507.04882812 493.52148438 C-507.03809089 501.68100587 -507.02101454 509.84049853 -507 518 C-503.27751868 516.78189935 -499.7702046 515.509685 -496.26953125 513.75 C-495.38201172 513.30527344 -494.49449219 512.86054687 -493.58007812 512.40234375 C-492.66677734 511.93957031 -491.75347656 511.47679687 -490.8125 511 C-489.51795898 510.35224609 -489.51795898 510.35224609 -488.19726562 509.69140625 C-482.99062858 507.0713879 -477.82398451 504.38390676 -472.674178 501.65432638 C-461.99767348 496.00113306 -451.22910501 490.54909225 -440.41748047 485.15991211 C-438.54431302 484.2242912 -436.67123846 483.28848429 -434.79824829 482.35250854 C-430.81089925 480.36039745 -426.82293613 478.36952328 -422.83446884 476.37965202 C-416.53062481 473.23455669 -410.22835475 470.08631618 -403.92630005 466.93763733 C-390.57706091 460.26853261 -377.22611146 453.60285546 -363.875 446.9375 C-349.39502262 439.70853669 -334.91535265 432.47896121 -320.43761361 425.24551588 C-314.16744486 422.11292589 -307.89630578 418.9822894 -301.62442183 415.85313499 C-297.74292939 413.9161027 -293.86225511 411.97743586 -289.98180771 410.038311 C-288.1764998 409.13659727 -286.37084463 408.23557843 -284.56482697 407.33528709 C-282.11081375 406.11185889 -279.65802346 404.88601356 -277.20553589 403.65953064 C-276.48212883 403.29962459 -275.75872177 402.93971854 -275.01339328 402.56890625 C-271.79408912 401.09957097 -271.79408912 401.09957097 -269 399 C-268.90345273 397.11438482 -268.87812759 395.22510545 -268.87974548 393.33702087 C-268.87837082 392.10717972 -268.87699615 390.87733856 -268.87557983 389.61022949 C-268.87911944 388.23486304 -268.88275426 386.85949683 -268.88647461 385.48413086 C-268.88675648 384.04557802 -268.88659876 382.60702504 -268.8860321 381.16847229 C-268.88574411 377.25128857 -268.89164116 373.33413521 -268.89860606 369.41695857 C-268.90483926 365.32766163 -268.90544337 361.23836407 -268.90663147 357.14906311 C-268.90974489 349.40007602 -268.91795841 341.65110297 -268.92798096 333.90212208 C-268.93914178 325.08243791 -268.94465247 316.26275309 -268.94967639 307.44306362 C-268.96014102 289.29536777 -268.97774066 271.14768501 -269 253 C-270.5896579 253.6296551 -272.17870093 254.26086265 -273.76748657 254.89271545 C-274.65245127 255.24405076 -275.53741596 255.59538607 -276.44919777 255.9573679 C-279.78086666 257.3191767 -282.98052714 258.84459696 -286.2109375 260.43359375 C-286.85260864 260.74748047 -287.49427979 261.06136719 -288.15539551 261.38476562 C-289.5220671 262.05336144 -290.88804346 262.72338005 -292.25335693 263.39474487 C-295.92492586 265.19926486 -299.60265186 266.99111148 -303.28125 268.78125 C-304.39462234 269.32307167 -304.39462234 269.32307167 -305.53048706 269.87583923 C-312.27328243 273.14859216 -319.06480737 276.30724111 -325.875 279.4375 C-336.48656581 284.32047474 -347.0044201 289.37373333 -357.5 294.5 C-369.13742634 300.18388145 -380.81733739 305.74407272 -392.58300781 311.15893555 C-406.48381238 317.57414674 -420.23735106 324.29488195 -434 331 C-434 325.06 -434 319.12 -434 313 C-432.02 312.34 -430.04 311.68 -428 311 C-426.45041917 310.30707147 -424.91537442 309.58059563 -423.39770508 308.8203125 C-422.53852982 308.39226318 -421.67935455 307.96421387 -420.79414368 307.52319336 C-419.87852158 307.06178955 -418.96289948 306.60038574 -418.01953125 306.125 C-417.05206467 305.6410376 -416.08459808 305.1570752 -415.08781433 304.65844727 C-413.03684109 303.631452 -410.98683887 302.60251557 -408.93774414 301.57177734 C-405.87023092 300.02903458 -402.79968027 298.49248978 -399.72851562 296.95703125 C-397.7211674 295.95089337 -395.7140007 294.94439322 -393.70703125 293.9375 C-392.81772415 293.49229004 -391.92841705 293.04708008 -391.01216125 292.58837891 C-385.82752725 289.97768881 -380.67776705 287.30776852 -375.54785919 284.59156609 C-363.97836554 278.46712346 -352.29645991 272.58364207 -340.58203125 266.7421875 C-338.50159522 265.70290507 -336.42124924 264.66344237 -334.34098816 263.62380981 C-328.93506439 260.92273306 -323.52794285 258.22406306 -318.12054443 255.52593994 C-311.59554474 252.26951977 -305.07207875 249.01002838 -298.54834747 245.75106812 C-288.70005384 240.83172664 -278.8498532 235.91622361 -269 231 C-269 206.25 -269 181.5 -269 156 C-271.10676856 156 -273.29771836 157.58351837 -275.1171875 158.4921875 Z M-22.93179512 289.84284973 C-24.1708903 290.45941075 -24.1708903 290.45941075 -25.4350177 291.08842754 C-26.34745582 291.54755944 -27.25989393 292.00669134 -28.19998169 292.47973633 C-29.1654089 292.96159551 -30.1308361 293.44345469 -31.12551868 293.93991566 C-34.38263365 295.56681686 -37.63684353 297.1994471 -40.89111328 298.83203125 C-43.21633012 299.99492153 -45.54172284 301.15746018 -47.86727905 302.31967163 C-52.88539725 304.82820555 -57.90203861 307.33967239 -62.91769791 309.8531189 C-70.16956366 313.4871676 -77.42362594 317.11681322 -84.67823754 320.74537671 C-96.44737718 326.63213691 -108.21472464 332.52247038 -119.98095703 338.41503906 C-131.41296411 344.14021706 -142.84581208 349.86371025 -154.27978516 355.58496094 C-154.99137987 355.94102629 -155.70297459 356.29709165 -156.43613279 356.66394687 C-162.00100837 359.44846399 -167.56593292 362.23288323 -173.13087296 365.01727152 C-200.42323234 378.67289044 -227.71130954 392.33704602 -255 406 C-255 485.86 -255 565.72 -255 648 C-250.25758143 646.41919381 -246.002291 644.64176867 -241.5728302 642.41003418 C-240.48268986 641.86677482 -240.48268986 641.86677482 -239.37052649 641.31254053 C-236.94407787 640.10212612 -234.52052243 638.88603152 -232.09692383 637.66992188 C-230.3536589 636.79882613 -228.61022079 635.92807687 -226.86662292 635.05764771 C-222.13260997 632.69306449 -217.40111252 630.32348798 -212.6700995 627.95290947 C-207.7021762 625.46454613 -202.73213649 622.98041673 -197.76237488 620.49572754 C-189.40247262 616.31530797 -181.04412484 612.13179396 -172.68676758 607.94628906 C-163.06852059 603.12933766 -153.44821775 598.31651391 -143.8266905 593.5061183 C-133.54307137 588.36464878 -123.2609856 583.22011857 -112.97933364 578.07471657 C-110.04001148 576.60399749 -107.10041114 575.13383575 -104.16074562 573.6638031 C-99.50340247 571.33462251 -94.84710353 569.00336646 -90.19154549 566.67061996 C-88.49861097 565.82271371 -86.8053567 564.97544549 -85.11172867 564.12892532 C-75.54594457 559.34706328 -66.03178 554.48173712 -56.58451062 549.46916723 C-48.7519591 545.31639807 -40.81954748 541.37050909 -32.875 537.4375 C-30.05874367 536.042671 -27.24384721 534.64514693 -24.4296875 533.24609375 C-23.79449188 532.93264511 -23.15929626 532.61919647 -22.50485229 532.29624939 C-19.55433707 530.94260368 -19.55433707 530.94260368 -17 529 C-16.90195191 525.90285742 -16.87009358 522.82799884 -16.87974548 519.73045349 C-16.87889106 518.74546295 -16.87803663 517.7604724 -16.87715632 516.74563366 C-16.87549853 513.41821365 -16.88102775 510.09084316 -16.88647461 506.76342773 C-16.88675644 504.3889262 -16.88659882 502.01442458 -16.8860321 499.6399231 C-16.88577395 493.8440998 -16.89012527 488.04829294 -16.89646976 482.25247341 C-16.9036037 475.51097875 -16.90511365 468.76948647 -16.90625793 462.02798856 C-16.90844877 450.00473954 -16.91510973 437.98149729 -16.92456055 425.95825195 C-16.93373384 414.27596063 -16.94081508 402.59367115 -16.94506836 390.91137695 C-16.94533108 390.19177374 -16.94559381 389.47217053 -16.94586449 388.73076116 C-16.94716949 385.12087064 -16.94843321 381.5109801 -16.94967639 377.90108955 C-16.96005 347.93405496 -16.97774331 317.96702827 -17 288 C-19.47106889 288 -20.72058146 288.73607047 -22.93179512 289.84284973 Z M-275.33178711 416.04443359 C-276.231306 416.49265472 -277.13082489 416.94087585 -278.05760193 417.40267944 C-279.03761673 417.8962796 -280.01763153 418.38987976 -281.02734375 418.8984375 C-282.04486221 419.40742584 -283.06238068 419.91641418 -284.11073303 420.44082642 C-286.27976584 421.52685812 -288.44782236 422.61484145 -290.61499023 423.70458984 C-293.86285591 425.33747227 -297.11373225 426.96421686 -300.36523438 428.58984375 C-309.58254742 433.20660062 -318.7797308 437.84939321 -327.87890625 442.6953125 C-336.67834285 447.37280342 -345.58381215 451.83190767 -354.5 456.28125 C-355.61602443 456.83819487 -355.61602443 456.83819487 -356.7545948 457.40639114 C-362.95248925 460.49829071 -369.15298051 463.58497046 -375.35351562 466.67156982 C-380.73684358 469.35162698 -386.11921943 472.03358178 -391.5 474.71875 C-392.24601912 475.09098883 -392.99203823 475.46322765 -393.76066399 475.84674644 C-402.44068604 480.18086266 -411.07913832 484.57243959 -419.63795471 489.14228821 C-427.45735493 493.29142503 -435.38516352 497.22250772 -443.30859375 501.16796875 C-444.04023365 501.5324474 -444.77187355 501.89692604 -445.52568436 502.27244949 C-452.3766266 505.68474299 -459.2300703 509.091994 -466.08569336 512.49487305 C-469.87651791 514.37677238 -473.66530277 516.26272787 -477.45292854 518.15105629 C-478.87406059 518.85856125 -480.29594468 519.56455809 -481.71865654 520.26888084 C-484.97017632 521.87867497 -488.20813026 523.50581862 -491.42276001 525.18818665 C-493.79399201 526.42364768 -496.08729315 527.44142124 -498.5809021 528.45378113 C-502.01902356 530.00392608 -504.39003562 531.2703814 -507 534 C-508.64681222 539.57703496 -508.4052171 544.88914382 -508.171875 550.65234375 C-508.14947003 552.27895325 -508.13239951 553.90564419 -508.12042236 555.53236389 C-508.07477672 559.79744295 -507.95709111 564.05755286 -507.82397461 568.32067871 C-507.70081796 572.6772945 -507.64632907 577.03472036 -507.5859375 581.39257812 C-507.45755167 589.93065665 -507.25299383 598.46470895 -507 607 C-502.68007693 605.657084 -498.73881686 603.99127851 -494.69775391 601.96240234 C-494.09834991 601.66284637 -493.49894592 601.36329041 -492.88137817 601.05465698 C-490.91118454 600.0688671 -488.94388608 599.07744096 -486.9765625 598.0859375 C-485.58874881 597.39016068 -484.20075517 596.6947427 -482.81259155 595.99966431 C-479.15749955 594.16830854 -475.50482843 592.33217502 -471.85266113 590.49499512 C-468.19094624 588.6540047 -464.5270438 586.81737976 -460.86328125 584.98046875 C-456.15300157 582.61843662 -451.4432516 580.25536298 -446.73525429 577.88878441 C-438.1623903 573.58115885 -429.58144698 569.29072349 -421 565 C-421 620.11 -421 675.22 -421 732 C-405.52298741 724.67910651 -405.52298741 724.67910651 -390.109375 717.23046875 C-388.60978241 716.49803703 -388.60978241 716.49803703 -387.07989502 715.75080872 C-385.00983164 714.73919031 -382.94006634 713.72696171 -380.87060547 712.71411133 C-377.71315842 711.16947697 -374.55387689 709.62863727 -371.39453125 708.08789062 C-369.36186729 707.09397876 -367.32931115 706.09984637 -365.296875 705.10546875 C-364.36454041 704.65125046 -363.43220581 704.19703217 -362.47161865 703.72904968 C-361.15293793 703.08236076 -361.15293793 703.08236076 -359.80761719 702.42260742 C-359.04551941 702.05004318 -358.28342163 701.67747894 -357.49822998 701.29362488 C-356.67381409 700.86672867 -355.84939819 700.43983246 -355 700 C-353.76412643 699.61936905 -352.52825287 699.2387381 -351.25492859 698.84657288 C-349.3389911 697.85916134 -349.3389911 697.85916134 -348 696 C-346.88854685 690.71068602 -347.0570967 685.40918609 -347.11352539 680.03222656 C-347.10563756 678.36661621 -347.09467732 676.70101798 -347.08087158 675.03544617 C-347.05210643 670.51275574 -347.06639689 665.99109833 -347.08831334 661.46840763 C-347.10392784 656.74242737 -347.08009247 652.01665177 -347.06040955 647.29071045 C-347.02914624 638.34110903 -347.03345417 629.39189086 -347.05048412 620.44226527 C-347.06814409 610.25365401 -347.04623744 600.06524868 -347.02097714 589.8766675 C-346.96990211 568.91770765 -346.96861279 547.95898788 -347 527 C-346.1416153 526.57211685 -345.28323059 526.1442337 -344.39883423 525.7033844 C-341.1691398 524.09311288 -337.94014072 522.48145112 -334.71133423 520.86940002 C-333.32223697 520.17609717 -331.93295934 519.48315557 -330.54348755 518.79060364 C-322.77731877 514.91940749 -315.02938432 511.02691664 -307.375 506.9375 C-298.03328413 501.96097448 -288.56100677 497.25154971 -279.07568359 492.55639648 C-277.91375488 491.97962158 -276.75182617 491.40284668 -275.5546875 490.80859375 C-273.98436768 490.03213501 -273.98436768 490.03213501 -272.38232422 489.23999023 C-270.10743755 488.20769059 -270.10743755 488.20769059 -269 487 C-268.90560022 484.73008113 -268.88257774 482.45718033 -268.88647461 480.18530273 C-268.88625557 479.11706772 -268.88625557 479.11706772 -268.8860321 478.0272522 C-268.8867313 475.66266888 -268.89452394 473.29816339 -268.90234375 470.93359375 C-268.90420791 469.29834537 -268.90563182 467.66309643 -268.90663147 466.02784729 C-268.91045682 461.71565215 -268.92028725 457.40349048 -268.93133545 453.09130859 C-268.9415492 448.69434054 -268.94612901 444.29736711 -268.95117188 439.90039062 C-268.96190951 431.26691169 -268.97898613 422.63346 -269 414 C-271.58928466 414 -273.01294314 414.88292277 -275.33178711 416.04443359 Z M-14.42578125 548 C-15.04634903 548.31174667 -15.66691681 548.62349335 -16.30628967 548.94468689 C-18.31245492 549.9552465 -20.3125067 550.9772877 -22.3125 552 C-23.67828564 552.69135549 -25.04433396 553.38219228 -26.41064453 554.07250977 C-35.33784007 558.59369328 -44.22805342 563.18312407 -53 568 C-49.36697294 571.97720857 -45.12247964 574.90515402 -40.75 578 C-34.8048008 582.24947917 -28.89569431 586.53539651 -23.0625 590.9375 C-14.89559178 597.09401397 -6.66343525 603.15970691 1.57666016 609.21777344 C5.55322518 612.14230746 9.52646271 615.07135433 13.5 618 C15.08331696 619.16668888 16.66665031 620.33335553 18.25 621.5 C46.75 642.5 46.75 642.5 49.12695312 644.25146484 C50.70374329 645.41329315 52.28056599 646.5750773 53.85742188 647.73681641 C57.91613927 650.72714107 61.97421743 653.7183273 66.03125 656.7109375 C74.33453329 662.83459881 82.6414779 668.95181098 91 675 C107.2956086 667.90352529 123.15297825 660.03513381 139 652 C136.33667248 649.28590191 133.73851357 646.64405786 130.6796875 644.37890625 C130.07213623 643.92596191 129.46458496 643.47301758 128.83862305 643.00634766 C128.19062744 642.52987793 127.54263184 642.0534082 126.875 641.5625 C126.18124268 641.0473584 125.48748535 640.5322168 124.77270508 640.00146484 C122.51846987 638.32975105 120.25960663 636.66444452 118 635 C116.46477489 633.86597864 114.92961913 632.73186337 113.39453125 631.59765625 C109.40749222 628.65460396 105.41601977 625.71761983 101.42333984 622.78222656 C97.44677482 619.85769254 93.47353729 616.92864567 89.5 614 C87.91668304 612.83331112 86.33334969 611.66664447 84.75 610.5 C68.91666667 598.83333333 53.08333333 587.16666667 37.25 575.5 C36.07304565 574.6327832 36.07304565 574.6327832 34.87231445 573.74804688 C33.29790018 572.58793509 31.72351837 571.42777924 30.14916992 570.26757812 C26.05464781 567.25024922 21.95946939 564.23381688 17.86328125 561.21875 C17.01765625 560.59613281 16.17203125 559.97351563 15.30078125 559.33203125 C13.69812842 558.15205609 12.09527917 556.97234764 10.4921875 555.79296875 C9.75871094 555.25285156 9.02523437 554.71273437 8.26953125 554.15625 C7.56006348 553.63675781 6.8505957 553.11726562 6.11962891 552.58203125 C4.66718152 551.49796547 3.23254572 550.38973928 1.81396484 549.26171875 C1.11609863 548.71128906 0.41823242 548.16085937 -0.30078125 547.59375 C-0.91735596 547.09552734 -1.53393066 546.59730469 -2.16918945 546.08398438 C-6.62863319 543.44364164 -10.30367926 545.91259434 -14.42578125 548 Z M-67.44970703 575.11132812 C-68.37051056 575.57180542 -69.29131409 576.03228271 -70.24002075 576.50671387 C-71.23589203 577.00981079 -72.23176331 577.51290771 -73.2578125 578.03125 C-74.78509476 578.79701355 -74.78509476 578.79701355 -76.3432312 579.57824707 C-79.60571036 581.21509938 -82.86536938 582.85748359 -86.125 584.5 C-88.33184819 585.60843745 -90.53887713 586.71651512 -92.74609375 587.82421875 C-98.16616944 590.54530248 -103.58393785 593.27093725 -109 596 C-109 596.66 -109 597.32 -109 598 C-107.55342849 599.31746712 -107.55342849 599.31746712 -105.625 600.6171875 C-104.89547119 601.13531006 -104.16594238 601.65343262 -103.41430664 602.18725586 C-102.61758545 602.74421143 -101.82086426 603.30116699 -101 603.875 C-99.33114365 605.05994883 -97.66319121 606.24617163 -95.99609375 607.43359375 C-95.15288574 608.03284668 -94.30967773 608.63209961 -93.44091797 609.24951172 C-89.9411044 611.75938002 -86.49809997 614.34075939 -83.0625 616.9375 C-74.89609434 623.09467016 -66.6634253 629.15971423 -58.42333984 635.21777344 C-54.44677482 638.14230746 -50.47353729 641.07135433 -46.5 644 C-44.91668304 645.16668888 -43.33334969 646.33335553 -41.75 647.5 C-13.25 668.5 -13.25 668.5 -10.8737793 670.25097656 C-9.2946132 671.41452134 -7.71534928 672.57793338 -6.13598633 673.74121094 C-2.11307101 676.70454688 1.90797964 679.67035854 5.92578125 682.640625 C15.22518547 689.51148708 24.56324907 696.31884192 34 703 C50.05318484 695.44320813 66.0290739 687.72861343 82 680 C79.14392657 677.07114656 76.33433318 674.34585483 73.0234375 671.94140625 C72.28029297 671.39806641 71.53714844 670.85472656 70.77148438 670.29492188 C69.98064453 669.72322266 69.18980469 669.15152344 68.375 668.5625 C66.66397871 667.3139169 64.9530436 666.06521569 63.2421875 664.81640625 C62.37045898 664.18234863 61.49873047 663.54829102 60.60058594 662.89501953 C56.55466531 659.94679986 52.52783803 656.97284817 48.5 654 C46.91676909 652.83319435 45.33343546 651.66652805 43.75 650.5 C27.91666667 638.83333333 12.08333333 627.16666667 -3.75 615.5 C-4.5339917 614.92233887 -5.3179834 614.34467773 -6.12573242 613.74951172 C-7.70668983 612.58456151 -9.28758192 611.41952266 -10.8684082 610.25439453 C-14.86255828 607.3107302 -18.8578843 604.36868654 -22.85546875 601.4296875 C-31.7313704 594.90168572 -40.58155225 588.34190583 -49.38671875 581.71875 C-49.9698584 581.28175781 -50.55299805 580.84476563 -51.15380859 580.39453125 C-52.49687499 579.38003836 -53.83213461 578.35518492 -55.16259766 577.32421875 C-55.87851074 576.77378906 -56.59442383 576.22335937 -57.33203125 575.65625 C-57.98534424 575.14900391 -58.63865723 574.64175781 -59.31176758 574.11914062 C-62.4517916 572.03759759 -64.34054103 573.54825014 -67.44970703 575.11132812 Z M-124.56323242 604.11132812 C-125.94432442 604.80204407 -125.94432442 604.80204407 -127.35331726 605.50671387 C-128.34402725 606.00981079 -129.33473724 606.51290771 -130.35546875 607.03125 C-131.88062859 607.79701355 -131.88062859 607.79701355 -133.43659973 608.57824707 C-136.68975244 610.21323291 -139.93863852 611.85650627 -143.1875 613.5 C-145.38969839 614.60862048 -147.59216902 615.71670036 -149.79492188 616.82421875 C-155.19979142 619.54320962 -160.60117934 622.26901999 -166 625 C-163.50960487 627.57169015 -161.01374901 629.85388451 -158.12109375 631.9609375 C-157.37472656 632.5075 -156.62835938 633.0540625 -155.859375 633.6171875 C-155.06015625 634.19726562 -154.2609375 634.77734375 -153.4375 635.375 C-151.71738121 636.63272127 -149.99733101 637.89053637 -148.27734375 639.1484375 C-147.39933105 639.7887793 -146.52131836 640.42912109 -145.61669922 641.08886719 C-141.56795642 644.04590755 -137.53433366 647.02334894 -133.5 650 C-131.91674861 651.16677787 -130.33341503 652.33344421 -128.75 653.5 C-106.58333333 669.83333333 -84.41666667 686.16666667 -62.25 702.5 C-61.07256226 703.36757935 -61.07256226 703.36757935 -59.87133789 704.25268555 C-58.3001952 705.41037815 -56.72906869 706.56809271 -55.15795898 707.72583008 C-51.01324654 710.7799874 -46.86819012 713.83367646 -42.72265625 716.88671875 C-41.85898437 717.52287109 -40.9953125 718.15902344 -40.10546875 718.81445312 C-38.45062445 720.03334382 -36.79568172 721.25210088 -35.140625 722.47070312 C-34.39425781 723.02048828 -33.64789063 723.57027344 -32.87890625 724.13671875 C-32.2247876 724.61842529 -31.57066895 725.10013184 -30.89672852 725.59643555 C-29 727 -29 727 -27.13256836 728.74145508 C-25.03123234 730.23056768 -25.03123234 730.23056768 -22.34277344 729.96484375 C-17.7973149 728.65286215 -13.74038128 726.67185883 -9.515625 724.5625 C-8.61882019 724.12236572 -7.72201538 723.68223145 -6.79803467 723.22875977 C-3.94503034 721.82646404 -1.09751079 720.41341218 1.75 719 C3.68063789 718.04876503 5.61162392 717.0982363 7.54296875 716.1484375 C13.03498655 713.44513937 18.52494442 710.73752779 24 708 C22.70426824 704.11280471 20.37310319 702.89247867 17.125 700.6875 C15.83877904 699.79189172 14.55368226 698.89466747 13.26953125 697.99609375 C12.57811035 697.51382324 11.88668945 697.03155273 11.17431641 696.53466797 C7.34429461 693.83137614 3.58075844 691.03841826 -0.1875 688.25 C-0.98913574 687.65791748 -1.79077148 687.06583496 -2.61669922 686.45581055 C-4.25953373 685.24237178 -5.90211053 684.02858403 -7.54443359 682.81445312 C-11.52649212 679.87205315 -15.51343938 676.9362956 -19.5 674 C-21.08335789 672.83336666 -22.6666912 671.66669996 -24.25 670.5 C-25.425625 669.63375 -25.425625 669.63375 -26.625 668.75 C-41.66666667 657.66666667 -56.70833333 646.58333333 -71.75 635.5 C-72.92647095 634.63314575 -72.92647095 634.63314575 -74.12670898 633.7487793 C-75.70439483 632.58624831 -77.28203183 631.42365103 -78.85961914 630.26098633 C-82.90395379 627.28048844 -86.94922297 624.30127242 -90.99609375 621.32421875 C-92.22779297 620.41760498 -92.22779297 620.41760498 -93.484375 619.49267578 C-95.09966268 618.30403754 -96.71553343 617.11619119 -98.33203125 615.92919922 C-101.82997591 613.35653159 -105.31507589 610.77241988 -108.75390625 608.12109375 C-109.5883728 607.48071167 -109.5883728 607.48071167 -110.43969727 606.82739258 C-111.88119131 605.71655575 -113.31591178 604.59694392 -114.75 603.4765625 C-118.55733616 600.97799814 -120.79998403 602.21423852 -124.56323242 604.11132812 Z M-182.95703125 633.47265625 C-183.65583908 633.8333873 -184.35464691 634.19411835 -185.07463074 634.56578064 C-186.56269506 635.33485108 -188.04975292 636.10587152 -189.53588867 636.87866211 C-191.76344214 638.03698991 -193.99368561 639.18997607 -196.22460938 640.34179688 C-204.86310871 644.80951227 -213.45482425 649.35618651 -222 654 C-218.8232687 657.25687428 -215.47940451 659.91265676 -211.75 662.5 C-206.5395842 666.1679352 -201.39885433 669.91188924 -196.3125 673.75 C-188.06202656 679.96876796 -179.74739014 686.0979838 -171.42333984 692.21777344 C-167.44677482 695.14230746 -163.47353729 698.07135433 -159.5 701 C-157.91668304 702.16668888 -156.33334969 703.33335553 -154.75 704.5 C-126.25 725.5 -126.25 725.5 -123.87280273 727.25170898 C-122.29690826 728.41283465 -120.7209 729.57380589 -119.14477539 730.73461914 C-115.07165825 733.73477651 -111.00083442 736.73797347 -106.93359375 739.74609375 C-95.92524381 747.89698771 -95.92524381 747.89698771 -84.71484375 755.765625 C-83 757 -83 757 -81 759 C-64.99181569 751.35035362 -48.99278119 743.68179509 -33 736 C-33 735.34 -33 734.68 -33 734 C-34.39703022 732.71543565 -34.39703022 732.71543565 -36.26953125 731.453125 C-36.98383301 730.94515381 -37.69813477 730.43718262 -38.43408203 729.91381836 C-39.61139893 729.09022827 -39.61139893 729.09022827 -40.8125 728.25 C-42.47328692 727.06989747 -44.13342249 725.88887784 -45.79296875 724.70703125 C-46.6545459 724.09553223 -47.51612305 723.4840332 -48.40380859 722.85400391 C-52.50801487 719.92308963 -56.56819344 716.93352646 -60.625 713.9375 C-61.8157312 713.05916504 -61.8157312 713.05916504 -63.03051758 712.16308594 C-68.69106975 707.98159436 -74.32434048 703.76468915 -79.94848633 699.53442383 C-87.45180308 693.89693743 -95.01521478 688.34135384 -102.57666016 682.78222656 C-106.55322518 679.85769254 -110.52646271 676.92864567 -114.5 674 C-116.08331696 672.83331112 -117.66665031 671.66664447 -119.25 670.5 C-122.41666667 668.16666667 -125.58333333 665.83333333 -128.75 663.5 C-129.92647095 662.63314575 -129.92647095 662.63314575 -131.12670898 661.7487793 C-132.70439483 660.58624831 -134.28203183 659.42365103 -135.85961914 658.26098633 C-139.90395379 655.28048844 -143.94922297 652.30127242 -147.99609375 649.32421875 C-149.22791382 648.41760498 -149.22791382 648.41760498 -150.48461914 647.49267578 C-152.09932228 646.30434941 -153.71438456 645.11651086 -155.32983398 643.92919922 C-158.83443613 641.34973528 -162.32942967 638.76065862 -165.7890625 636.12109375 C-166.34988525 635.69417236 -166.91070801 635.26725098 -167.48852539 634.82739258 C-168.94491986 633.71482196 -170.39650526 632.59596369 -171.84765625 631.4765625 C-175.99625301 628.63051972 -178.96541694 631.39038105 -182.95703125 633.47265625 Z M-237.83984375 661.23828125 C-238.81179688 661.72393555 -239.78375 662.20958984 -240.78515625 662.70996094 C-241.82542969 663.23879883 -242.86570312 663.76763672 -243.9375 664.3125 C-244.9996875 664.8477832 -246.061875 665.38306641 -247.15625 665.93457031 C-257.23683773 671.04995795 -267.15082978 676.45405784 -277 682 C-272.89879394 686.45320578 -268.34163441 689.65931256 -263.3125 693 C-256.75535437 697.41883604 -250.26890045 701.91034994 -243.875 706.5625 C-238.11311298 710.75205103 -232.32890038 714.9041253 -226.5 719 C-220.67109103 723.09588074 -214.88726918 727.24846752 -209.125 731.4375 C-202.92471347 735.94104327 -196.65284883 740.3210701 -190.3125 744.625 C-183.96849594 748.93178543 -177.72435713 753.33947275 -171.56396484 757.90454102 C-166.19904078 761.87527651 -160.76322888 765.73940838 -155.29150391 769.56152344 C-151.81432164 771.99371209 -148.37184721 774.45436658 -144.98828125 777.015625 C-144.35672119 777.48734131 -143.72516113 777.95905762 -143.07446289 778.44506836 C-141.89112222 779.33198006 -140.71645669 780.23063282 -139.55249023 781.14282227 C-136.52657162 783.43387945 -136.52657162 783.43387945 -132.87695312 783.86572266 C-128.7081444 782.61125934 -124.9182641 780.73031323 -121.015625 778.81640625 C-119.73132599 778.19305641 -119.73132599 778.19305641 -118.42108154 777.55711365 C-116.61770374 776.67985616 -114.81574844 775.79966913 -113.01513672 774.91674805 C-110.25002457 773.56251203 -107.47892888 772.22114185 -104.70703125 770.88085938 C-102.9553558 770.02680702 -101.20404081 769.17201487 -99.453125 768.31640625 C-98.62089417 767.91426407 -97.78866333 767.51212189 -96.93121338 767.09779358 C-96.16661804 766.72077805 -95.40202271 766.34376251 -94.61425781 765.95532227 C-93.60096405 765.46020897 -93.60096405 765.46020897 -92.56719971 764.95509338 C-90.8185574 764.07964754 -90.8185574 764.07964754 -90 762 C-90.79019531 761.44054687 -91.58039063 760.88109375 -92.39453125 760.3046875 C-101.85924363 753.58401244 -111.21031546 746.71494765 -120.54443359 739.81445312 C-124.52649212 736.87205315 -128.51343938 733.9362956 -132.5 731 C-134.08335789 729.83336666 -135.6666912 728.66669996 -137.25 727.5 C-138.425625 726.63375 -138.425625 726.63375 -139.625 725.75 C-154.66666667 714.66666667 -169.70833333 703.58333333 -184.75 692.5 C-185.92647095 691.63314575 -185.92647095 691.63314575 -187.12670898 690.7487793 C-188.70439483 689.58624831 -190.28203183 688.42365103 -191.85961914 687.26098633 C-195.90395379 684.28048844 -199.94922297 681.30127242 -203.99609375 678.32421875 C-205.22779297 677.41760498 -205.22779297 677.41760498 -206.484375 676.49267578 C-208.09966268 675.30403754 -209.71553343 674.11619119 -211.33203125 672.92919922 C-214.82997591 670.35653159 -218.31507589 667.77241988 -221.75390625 665.12109375 C-222.5883728 664.48071167 -222.5883728 664.48071167 -223.43969727 663.82739258 C-224.88119131 662.71655575 -226.31591178 661.59694392 -227.75 660.4765625 C-231.65394128 657.91460103 -233.98412919 659.30376066 -237.83984375 661.23828125 Z M-297.5703125 691.328125 C-298.94737869 692.02443024 -298.94737869 692.02443024 -300.3522644 692.73480225 C-303.28534547 694.22321841 -306.204864 695.73637135 -309.125 697.25 C-311.09944566 698.25550773 -313.07469781 699.25943351 -315.05078125 700.26171875 C-318.66651007 702.10291645 -322.27981322 703.94841834 -325.88330078 705.81347656 C-326.60768341 706.18813049 -327.33206604 706.56278442 -328.07839966 706.9487915 C-330.2234505 708.08590476 -330.2234505 708.08590476 -333 710 C-333 710.66 -333 711.32 -333 712 C-330.55670355 713.877577 -328.10378987 715.63830537 -325.5625 717.375 C-323.99076342 718.4659701 -322.41915222 719.55712085 -320.84765625 720.6484375 C-320.0395752 721.2062793 -319.23149414 721.76412109 -318.39892578 722.33886719 C-314.74785284 724.86704756 -311.12442113 727.43383186 -307.5 730 C-306.08220784 731.00155212 -304.66423845 732.00285338 -303.24609375 733.00390625 C-302.19397705 733.74664795 -302.19397705 733.74664795 -301.12060547 734.50439453 C-299.01000383 735.99294457 -296.89779562 737.47918755 -294.78515625 738.96484375 C-287.55159079 744.05522361 -280.34789253 749.18210977 -273.1875 754.375 C-264.33027853 760.79576273 -255.37019403 767.06429068 -246.39892578 773.32421875 C-237.64510469 779.43924297 -228.91964498 785.59309525 -220.27172852 791.85717773 C-218.76719557 792.94519516 -217.25989835 794.02940112 -215.74975586 795.10961914 C-211.90442769 797.86476187 -208.12194795 800.67058242 -204.40234375 803.59375 C-203.65275391 804.16544922 -202.90316406 804.73714844 -202.13085938 805.32617188 C-200.70794158 806.41204948 -199.30273767 807.52169721 -197.91992188 808.65820312 C-195.32751073 810.60315894 -193.35112549 812.07131452 -190.02954102 811.89599609 C-187.53559333 811.15383638 -185.33824158 810.14689171 -183 809 C-181.89019775 808.47438477 -180.78039551 807.94876953 -179.63696289 807.40722656 C-175.74881235 805.53816702 -171.90582229 803.58413743 -168.0625 801.625 C-166.74312476 800.95776707 -165.42346481 800.29109681 -164.10351562 799.625 C-161.56506471 798.34311261 -159.0281659 797.05824103 -156.49267578 795.77050781 C-152.00427136 793.49524506 -147.50445988 791.24327541 -143 789 C-153.61220174 780.41689993 -164.66320756 772.451599 -175.94140625 764.7734375 C-186.04931624 757.88823316 -195.98082746 750.75003051 -205.875 743.5625 C-212.0754663 739.05919491 -218.34714219 734.678936 -224.6875 730.375 C-231.0337122 726.06671551 -237.27931683 721.65663267 -243.44262695 717.09106445 C-249.43818409 712.65481787 -255.5277899 708.3580655 -261.6328125 704.07421875 C-264.66129237 701.94852475 -267.67463151 699.80320679 -270.6796875 697.64453125 C-271.44490723 697.09724365 -272.21012695 696.54995605 -272.99853516 695.98608398 C-274.46203822 694.93884296 -275.9228141 693.8877765 -277.38037109 692.83227539 C-278.04375488 692.35910889 -278.70713867 691.88594238 -279.390625 691.3984375 C-279.96844727 690.98255371 -280.54626953 690.56666992 -281.14160156 690.13818359 C-281.75487305 689.76258301 -282.36814453 689.38698242 -283 689 C-284.0530835 688.29689697 -284.0530835 688.29689697 -285.12744141 687.57958984 C-289.90430592 686.61577237 -293.38645527 689.1336352 -297.5703125 691.328125 Z M-349.47729492 717.98779297 C-350.35467819 718.42179413 -351.23206146 718.85579529 -352.1360321 719.302948 C-353.54402824 720.01537155 -353.54402824 720.01537155 -354.98046875 720.7421875 C-355.94906326 721.22575714 -356.91765778 721.70932678 -357.91560364 722.20755005 C-359.96089024 723.23102311 -362.00419741 724.25846002 -364.0456543 725.28955078 C-367.18082718 726.87163274 -370.32320719 728.43862726 -373.46679688 730.00390625 C-375.45096768 730.99910961 -377.43470685 731.99517408 -379.41796875 732.9921875 C-380.83507393 733.69853836 -380.83507393 733.69853836 -382.2808075 734.41915894 C-383.14873428 734.85946442 -384.01666107 735.2997699 -384.91088867 735.75341797 C-386.06194344 736.33299759 -386.06194344 736.33299759 -387.23625183 736.92428589 C-389.16418681 737.88608573 -389.16418681 737.88608573 -390 740 C-388.97003906 740.72703125 -387.94007813 741.4540625 -386.87890625 742.203125 C-385.44010417 743.21875 -384.00130208 744.234375 -382.5625 745.25 C-381.79550781 745.79140625 -381.02851563 746.3328125 -380.23828125 746.890625 C-379.05492187 747.7259375 -379.05492187 747.7259375 -377.84765625 748.578125 C-377.0395752 749.14853516 -376.23149414 749.71894531 -375.39892578 750.30664062 C-367.51595052 755.87109375 -359.63297526 761.43554688 -351.75 767 C-351.04883057 767.49491943 -350.34766113 767.98983887 -349.62524414 768.49975586 C-348.20767346 769.50044188 -346.79019308 770.50125583 -345.37280273 771.50219727 C-341.84569428 773.99275451 -338.31707783 776.48111592 -334.78515625 778.96484375 C-327.52765027 784.07231989 -320.30413676 789.22035849 -313.125 794.4375 C-306.92462426 798.94092371 -300.65286363 803.32108331 -294.3125 807.625 C-288.65369554 811.46643239 -283.05691147 815.36412166 -277.5625 819.4375 C-271.51673295 823.91720999 -265.40329468 828.29408858 -259.25 832.625 C-258.37931885 833.24173584 -257.5086377 833.85847168 -256.61157227 834.49389648 C-255.79615967 835.06567627 -254.98074707 835.63745605 -254.140625 836.2265625 C-253.05056152 836.99347412 -253.05056152 836.99347412 -251.93847656 837.77587891 C-249.91686658 839.16057711 -249.91686658 839.16057711 -247 840 C-244.75377074 839.26078888 -244.75377074 839.26078888 -242.3449707 838.00219727 C-241.40422195 837.54164444 -240.46347321 837.08109161 -239.49421692 836.60658264 C-238.48163315 836.09832443 -237.46904938 835.59006622 -236.42578125 835.06640625 C-235.38681198 834.55448227 -234.34784271 834.04255829 -233.27738953 833.51512146 C-229.95108497 831.87350991 -226.63181079 830.21820012 -223.3125 828.5625 C-221.06229759 827.44896276 -218.8116519 826.33632078 -216.56054688 825.22460938 C-211.03517389 822.49345094 -205.51551507 819.75100704 -200 817 C-203.84951204 813.90340483 -207.76319612 810.91692874 -211.75 808 C-212.40049316 807.52361084 -213.05098633 807.04722168 -213.72119141 806.55639648 C-220.70355889 801.46041451 -227.76886374 796.48381826 -234.84277344 791.51611328 C-238.39929382 789.01656693 -241.94939773 786.50794239 -245.5 784 C-249.73596723 781.00841805 -253.97286618 778.01821166 -258.21484375 775.03515625 C-265.448407 769.94477794 -272.65221073 764.81803053 -279.8125 759.625 C-286.16427602 755.0187713 -292.56318953 750.4865817 -299 746 C-305.49805858 741.47026952 -311.95897952 736.89525384 -318.375 732.25 C-319.10992676 731.71930908 -319.84485352 731.18861816 -320.60205078 730.6418457 C-324.11436467 728.10263872 -327.61402807 725.54855411 -331.09375 722.96484375 C-332.054021 722.25956543 -332.054021 722.25956543 -333.03369141 721.54003906 C-334.22402784 720.66567367 -335.40902602 719.78397307 -336.58740234 718.89355469 C-341.32734775 715.43125786 -344.33261815 715.41600988 -349.47729492 717.98779297 Z M-405.55078125 746.23828125 C-406.92544556 746.9667627 -406.92544556 746.9667627 -408.32788086 747.70996094 C-409.80526733 748.50321777 -409.80526733 748.50321777 -411.3125 749.3125 C-413.38193898 750.40920197 -415.45227682 751.50420925 -417.5234375 752.59765625 C-418.58788086 753.15984863 -419.65232422 753.72204102 -420.74902344 754.30126953 C-425.94569047 757.01668026 -431.18820644 759.63813313 -436.4375 762.25 C-437.3963208 762.72735596 -438.3551416 763.20471191 -439.34301758 763.6965332 C-441.56117598 764.79938678 -443.78008471 765.90068825 -446 767 C-442.01658701 771.24845417 -437.68135841 774.57517725 -432.9375 777.9375 C-432.15383057 778.49816162 -431.37016113 779.05882324 -430.56274414 779.63647461 C-422.21703766 785.59227048 -413.80712371 791.45718716 -405.39892578 797.32421875 C-395.93993337 803.93184381 -386.52883569 810.6020477 -377.1875 817.375 C-368.33019724 823.79565328 -359.37019651 830.06428895 -350.39892578 836.32421875 C-346.71837927 838.89528239 -343.04456905 841.47579677 -339.375 844.0625 C-338.694375 844.54219238 -338.01375 845.02188477 -337.3125 845.51611328 C-333.59859182 848.14094773 -329.90278785 850.78892903 -326.22265625 853.4609375 C-325.42359863 854.04093506 -324.62454102 854.62093262 -323.80126953 855.21850586 C-322.27822347 856.32610422 -320.75692418 857.43611054 -319.23779297 858.54907227 C-317.8433242 859.5641233 -316.43443287 860.55969362 -315.01098633 861.53369141 C-313 863 -313 863 -311.26049805 864.74365234 C-309.09934249 866.66790006 -307.86731635 867.47746617 -305 868 C-299.25517637 866.35165365 -294.18121627 863.57322387 -288.9375 860.75 C-287.51279301 860.01228345 -286.08636765 859.27787555 -284.65820312 858.546875 C-282.53444723 857.45769462 -280.41313224 856.36502997 -278.29916382 855.25695801 C-271.31080779 851.59447718 -264.17842899 848.27045597 -257 845 C-266.98350168 836.98270328 -277.27194411 829.40526794 -287.86328125 822.2121582 C-292.91417544 818.7733166 -297.87353257 815.22238709 -302.8125 811.625 C-309.03240858 807.09806838 -315.32174293 802.69432303 -321.6875 798.375 C-328.03380538 794.06685846 -334.27932251 789.65662846 -340.44262695 785.09106445 C-347.86882063 779.59625797 -355.44015641 774.30852251 -363 769 C-365.81371258 767.02255109 -368.62595782 765.04303325 -371.4375 763.0625 C-372.12585938 762.57885986 -372.81421875 762.09521973 -373.5234375 761.59692383 C-377.36680554 758.88865069 -381.1789601 756.14363651 -384.96484375 753.35546875 C-385.78476807 752.75404053 -386.60469238 752.1526123 -387.44946289 751.53295898 C-389.03779788 750.36540887 -390.62181032 749.19194996 -392.20092773 748.01196289 C-392.91579346 747.48723389 -393.63065918 746.96250488 -394.3671875 746.421875 C-394.99737793 745.95362305 -395.62756836 745.48537109 -396.27685547 745.00292969 C-399.83220704 742.93359216 -402.25308822 744.47185966 -405.55078125 746.23828125 Z M-459.8046875 773.8359375 C-460.60680664 774.23603027 -461.40892578 774.63612305 -462.23535156 775.04833984 C-463.10643555 775.4861377 -463.97751953 775.92393555 -464.875 776.375 C-466.21256348 777.04523193 -466.21256348 777.04523193 -467.57714844 777.72900391 C-474.61364432 781.26954276 -481.59798287 784.90358509 -488.55419922 788.59912109 C-493.33573673 791.13822415 -498.14881097 793.59635657 -503 796 C-501.1573257 800.07523841 -498.47914306 802.40705944 -495.0625 805.1875 C-494.47984375 805.67089844 -493.8971875 806.15429688 -493.296875 806.65234375 C-491.53728128 808.109088 -489.77001598 809.55594636 -488 811 C-487.06027344 811.76957031 -486.12054688 812.53914062 -485.15234375 813.33203125 C-483.37028016 814.78865171 -481.58639576 816.24304715 -479.80078125 817.6953125 C-476.73224213 820.22033075 -473.70960188 822.79484769 -470.6875 825.375 C-466.25148397 829.15792492 -461.73399357 832.80532737 -457.125 836.375 C-451.37679587 840.83279096 -445.86456513 845.51739424 -440.390625 850.30639648 C-435.99608121 854.14876722 -431.53422646 857.88909462 -427 861.56640625 C-417.43269616 869.32738319 -407.93510003 877.17258384 -398.54931641 885.15209961 C-393.42306239 889.50462539 -388.22727929 893.76958968 -383 898 C-382.175 898.76441406 -381.35 899.52882813 -380.5 900.31640625 C-378.16669086 902.28140466 -378.16669086 902.28140466 -375.61181641 901.72436523 C-373.13843803 901.03839462 -371.01563431 900.21413925 -368.7109375 899.09375 C-367.86797119 898.68745361 -367.02500488 898.28115723 -366.15649414 897.86254883 C-364.77965454 897.18808716 -364.77965454 897.18808716 -363.375 896.5 C-362.40747803 896.03166748 -361.43995605 895.56333496 -360.44311523 895.08081055 C-357.62134796 893.71345059 -354.8023066 892.34061464 -351.98394775 890.96624756 C-348.22473648 889.1353885 -344.46163736 887.31253742 -340.69921875 885.48828125 C-332.12968412 881.33194523 -323.56395611 877.16781644 -315 873 C-317.77696691 870.15545535 -320.48665007 867.47332552 -323.72265625 865.16015625 C-324.41552734 864.66193359 -325.10839844 864.16371094 -325.82226562 863.65039062 C-326.56154297 863.12638672 -327.30082031 862.60238281 -328.0625 862.0625 C-328.84689453 861.50111328 -329.63128906 860.93972656 -330.43945312 860.36132812 C-337.10346443 855.60433034 -343.81557586 850.91570803 -350.53320312 846.23486328 C-356.08608182 842.36008772 -361.5874047 838.42124696 -367.0625 834.4375 C-373.19948557 829.97411462 -379.40892978 825.6367868 -385.6875 821.375 C-392.0337224 817.0667321 -398.27931769 812.65663202 -404.44262695 808.09106445 C-411.15400753 803.12516413 -417.98452491 798.33175997 -424.81640625 793.53369141 C-428.50519203 790.94279782 -432.19070173 788.34726988 -435.875 785.75 C-436.57995605 785.25346924 -437.28491211 784.75693848 -438.01123047 784.24536133 C-443.08367497 780.66576029 -448.10540964 777.0243049 -453.09375 773.328125 C-456.01359972 771.29380348 -456.72181792 772.29694556 -459.8046875 773.8359375 Z " fill="#FFFFFF" transform="translate(525,1)"/>
<path d="M0 0 C0 28.05 0 56.1 0 85 C-9.89534608 89.94767304 -19.78708385 94.88068167 -29.75 99.6875 C-30.66078308 100.12730194 -30.66078308 100.12730194 -31.58996582 100.57598877 C-43.22709634 106.19135768 -54.93185284 111.65270675 -66.6640625 117.06640625 C-70.60669445 118.88649151 -74.540305 120.72284118 -78.4609375 122.58984375 C-79.26176758 122.97092285 -80.06259766 123.35200195 -80.88769531 123.74462891 C-82.3287173 124.43243229 -83.76829269 125.1232789 -85.20605469 125.81787109 C-89.78121568 128 -89.78121568 128 -92 128 C-92 100.94 -92 73.88 -92 46 C-70.56149733 34.71657754 -70.56149733 34.71657754 -61 30 C-53.86942076 26.45966627 -46.77752321 22.86571693 -39.75 19.125 C-32.17072656 15.09869425 -24.53133798 11.19540938 -16.8626709 7.3427124 C-15.58422765 6.70008614 -14.30647006 6.05609391 -13.02941895 5.41070557 C-11.23913826 4.5066566 -9.44580299 3.60866432 -7.65234375 2.7109375 C-6.61070068 2.18806152 -5.56905762 1.66518555 -4.49584961 1.12646484 C-2 0 -2 0 0 0 Z " fill="#FFFFFF" transform="translate(435,400)"/>
</svg>
